<svg width="70" height="70" viewBox="0 0 70 70" fill="none" xmlns="http://www.w3.org/2000/svg">
<path d="M69.8875 26.9499C69.6175 26.1188 68.899 25.513 68.0344 25.3873L46.6325 22.2759L37.0589 2.88014C36.6721 2.0966 35.8739 1.60059 35 1.60059C34.1263 1.60059 33.3279 2.0966 32.9412 2.88014L23.3676 22.2759L1.96563 25.3872C1.10102 25.5128 0.382424 26.1186 0.112541 26.9497C-0.157615 27.7809 0.0676972 28.6933 0.693596 29.3032L16.179 44.3981L12.5261 65.7158C12.3784 66.5771 12.7325 67.4473 13.4395 67.961C14.1463 68.4745 15.0834 68.5423 15.8571 68.1359L34.9999 58.0743L54.1424 68.1359C54.9201 68.5446 55.8569 68.4718 56.56 67.961C57.267 67.4475 57.6212 66.577 57.4734 65.7158L53.8207 44.3982L69.3064 29.3032C69.9323 28.6932 70.1577 27.7807 69.8875 26.9499ZM49.7516 41.9523C49.2104 42.4796 48.9636 43.2394 49.0912 43.9841L52.1623 61.9075L36.0681 53.448C35.3995 53.0964 34.6004 53.0962 33.9318 53.448L17.8374 61.9075L20.9086 43.9841C21.0363 43.2395 20.7893 42.4796 20.2482 41.9523L7.22944 29.2619L25.2226 26.6461C25.9703 26.5374 26.6164 26.0678 26.9511 25.3903L35 9.08348L43.0489 25.3905C43.3835 26.0679 44.0297 26.5375 44.7775 26.6462L62.7706 29.2621L49.7516 41.9523Z" fill="white"/>
</svg>
