<svg width="70" height="68" viewBox="0 0 70 68" fill="none" xmlns="http://www.w3.org/2000/svg">
<path d="M69.8875 25.9499C69.6175 25.1188 68.899 24.513 68.0344 24.3873L46.6325 21.2759L37.0589 1.88014C36.6721 1.0966 35.8739 0.600586 35 0.600586C34.1263 0.600586 33.3279 1.0966 32.9412 1.88014L23.3676 21.2759L1.96563 24.3872C1.10102 24.5128 0.382424 25.1186 0.112541 25.9497C-0.157615 26.7809 0.0676972 27.6933 0.693596 28.3032L16.179 43.3981L12.5261 64.7158C12.3784 65.5771 12.7325 66.4473 13.4395 66.961C14.1463 67.4745 15.0834 67.5423 15.8571 67.1359L34.9999 57.0743L54.1424 67.1359C54.9201 67.5446 55.8569 67.4718 56.56 66.961C57.267 66.4475 57.6212 65.577 57.4734 64.7158L53.8207 43.3982L69.3064 28.3032C69.9323 27.6932 70.1577 26.7807 69.8875 25.9499ZM49.7516 40.9523C49.2104 41.4796 48.9636 42.2394 49.0912 42.9841L52.1623 60.9075L36.0681 52.448C35.3995 52.0964 34.6004 52.0962 33.9318 52.448L17.8374 60.9075L20.9086 42.9841C21.0363 42.2395 20.7893 41.4796 20.2482 40.9523L7.22944 28.2619L25.2226 25.6461C25.9703 25.5374 26.6164 25.0678 26.9511 24.3903L35 8.08348L43.0489 24.3905C43.3835 25.0679 44.0297 25.5375 44.7775 25.6462L62.7706 28.2621L49.7516 40.9523Z" fill="#323232"/>
</svg>
