<?xml-stylesheet type="text/css" href="../css/main.css"?>
 
<svg width="70" height="70" viewBox="0 0 70 70" fill="none" xmlns="http://www.w3.org/2000/svg">
<g clip-path="url(#clip0_134_281)">
<path class="testa" d="M35 0C16.0738 0 0.756603 15.3155 0.756603 34.2434V54.0285C0.756603 54.0314 0.757013 54.0343 0.757013 54.0371C0.76549 59.6591 4.85994 64.3382 10.2233 65.2646C11.1161 68.0097 13.6977 70 16.7368 70C20.5131 70 23.5855 66.9277 23.5855 63.1513V44.8882C23.5855 41.1119 20.5131 38.0395 16.7368 38.0395C13.6979 38.0395 11.1162 40.0299 10.2233 42.7751C8.40807 43.0886 6.73764 43.8297 5.32233 44.8945V34.2434C5.32233 17.8791 18.6357 4.56586 34.9999 4.56586C51.364 4.56586 64.6774 17.8793 64.6774 34.2434V44.8945C63.2622 43.8296 61.5917 43.0886 59.7764 42.7751C58.8837 40.03 56.302 38.0395 53.2629 38.0395C49.4866 38.0395 46.4142 41.1119 46.4142 44.8882V63.1513C46.4142 66.9277 49.4866 70 53.2629 70C56.302 70 58.8835 68.0096 59.7764 65.2645C65.1398 64.3381 69.2344 59.6589 69.2427 54.037C69.2427 54.0341 69.2431 54.0312 69.2431 54.0284V34.2434C69.2435 15.3173 53.928 0 35 0ZM14.4542 44.8882C14.4542 43.6294 15.4783 42.6053 16.7371 42.6053C17.9959 42.6053 19.02 43.6294 19.02 44.8882V63.1513C19.02 64.4101 17.9959 65.4343 16.7371 65.4343C15.4783 65.4343 14.4542 64.4101 14.4542 63.1513V44.8882ZM9.88832 47.5624V60.4773C7.23092 59.535 5.3226 56.996 5.3226 54.0198C5.3226 51.0435 7.23092 48.5045 9.88832 47.5624ZM55.5462 63.1513C55.5462 64.4101 54.5221 65.4343 53.2633 65.4343C52.0045 65.4343 50.9804 64.4101 50.9804 63.1513V44.8882C50.9804 43.6294 52.0045 42.6053 53.2633 42.6053C54.5221 42.6053 55.5462 43.6294 55.5462 44.8882V63.1513ZM60.112 60.4773V47.5623C62.7694 48.5045 64.6777 51.0435 64.6777 54.0198C64.6777 56.9961 62.7694 59.5351 60.112 60.4773Z" fill="#323232"/>
</g>
<defs>
<clipPath id="clip0_134_281">
<rect width="70" height="70" fill="white"/>
</clipPath>
</defs>
</svg>
