<svg width="70" height="73" viewBox="0 0 70 73" fill="none" xmlns="http://www.w3.org/2000/svg">
<path d="M58.5872 9.47656H25.1088C23.8483 9.47656 22.8262 10.5373 22.8262 11.8458C22.8262 13.1543 23.8481 14.215 25.1088 14.215H58.5872C59.8477 14.215 60.8698 13.1543 60.8698 11.8458C60.8698 10.5373 59.8477 9.47656 58.5872 9.47656Z" fill="#323232"/>
<path d="M58.5872 18.9531H25.1088C23.8483 18.9531 22.8262 20.0139 22.8262 21.3224V41.8553C22.8262 43.1637 23.8481 44.2245 25.1088 44.2245H58.5872C59.8477 44.2245 60.8698 43.1638 60.8698 41.8553V21.3224C60.8697 20.0139 59.8477 18.9531 58.5872 18.9531ZM56.3045 39.4861H27.3915V23.6916H56.3045V39.4861Z" fill="#323232"/>
<path d="M58.5872 48.9629H25.1088C23.8483 48.9629 22.8262 50.0236 22.8262 51.3321C22.8262 52.6406 23.8481 53.7014 25.1088 53.7014H58.5872C59.8477 53.7014 60.8698 52.6406 60.8698 51.3321C60.8698 50.0236 59.8477 48.9629 58.5872 48.9629Z" fill="#323232"/>
<path d="M58.5872 58.4395H25.1088C23.8483 58.4395 22.8262 59.5002 22.8262 60.8087C22.8262 62.1172 23.8481 63.1779 25.1088 63.1779H58.5872C59.8477 63.1779 60.8698 62.1172 60.8698 60.8087C60.8698 59.5002 59.8477 58.4395 58.5872 58.4395Z" fill="#323232"/>
<path d="M67.7173 0H15.9783C14.7178 0 13.6957 1.06073 13.6957 2.36923V18.9536H2.28266C1.02197 18.9534 0 20.0141 0 21.3226V63.1782C0 68.4036 4.09596 72.6549 9.13049 72.6549H60.8696C65.904 72.6549 70 68.4036 70 63.1781V2.36923C70 1.06073 68.978 0 67.7173 0ZM13.6957 63.1781C13.6957 65.7908 11.6478 67.9164 9.13049 67.9164C6.61322 67.9164 4.56531 65.7908 4.56531 63.1781V23.6919H13.6958L13.6957 63.1781ZM65.4348 63.1781C65.4348 65.7908 63.3869 67.9164 60.8696 67.9164H17.0356C17.8314 66.4916 18.2608 64.8568 18.2608 63.1781V21.3226V4.73832H65.4347V63.1781H65.4348Z" fill="#323232"/>
</svg>
