<svg width="70" height="70" viewBox="0 0 70 70" fill="none" xmlns="http://www.w3.org/2000/svg">
<path d="M60.6239 23.0943C59.3448 10.261 48.4212 0 35.0013 0C20.7989 0 9.24438 11.5545 9.24438 25.7569C9.24438 31.3706 11.0087 36.6909 14.3478 41.1476L33.1165 68.9974C33.5389 69.6243 34.2454 70 35.0012 70C35.7569 70 36.4634 69.6243 36.8858 68.9973L55.6397 41.1665C59.5037 36.0096 61.2738 29.5935 60.6239 23.0943ZM51.9724 38.4815C51.9484 38.5132 51.9252 38.5456 51.9032 38.5786L35.0012 63.6606L18.0846 38.5593C18.0625 38.5265 18.0395 38.4941 18.0157 38.4625C15.2511 34.7902 13.7897 30.3966 13.7897 25.7569C13.7897 14.0609 23.3053 4.54536 35.0013 4.54536C45.7712 4.54536 55.0392 12.8912 56.1013 23.546C56.6391 28.9269 55.1727 34.2312 51.9724 38.4815Z" fill="white"/>
<path d="M35.0013 14.3916C28.7356 14.3916 23.638 19.4892 23.638 25.7549C23.638 32.0206 28.7356 37.1181 35.0013 37.1181C41.267 37.1181 46.3646 32.0206 46.3646 25.7549C46.3646 19.4892 41.267 14.3916 35.0013 14.3916ZM35.0013 32.5729C31.2418 32.5729 28.1833 29.5144 28.1833 25.7549C28.1833 21.9954 31.2418 18.9368 35.0013 18.9368C38.7608 18.9368 41.8193 21.9954 41.8193 25.7549C41.8192 29.5144 38.7607 32.5729 35.0013 32.5729Z" fill="white"/>
</svg>
