<svg width="70" height="70" viewBox="0 0 70 70" fill="none" xmlns="http://www.w3.org/2000/svg">
<g clip-path="url(#clip0_134_318)">
<path d="M67.9947 45.7557L58.5157 36.277C55.8483 33.6099 51.5086 33.6101 48.8413 36.277L41.5128 43.6056C41.5125 43.6058 41.5124 43.606 41.512 43.6064L41.5117 43.6067C40.6225 44.4952 39.1764 44.4951 38.2873 43.6064L26.3916 31.7106C25.5003 30.8195 25.5 29.3777 26.3913 28.4858L26.3917 28.4856C26.392 28.4853 26.3921 28.4852 26.3925 28.4847L33.7209 21.1563C36.3945 18.4828 36.3946 14.1555 33.7209 11.482L24.2421 2.00301C21.5744 -0.663694 17.2348 -0.663831 14.5673 2.00301C13.4003 3.17004 5.2952 11.275 4.01332 12.557C1.34621 15.224 -0.00402099 18.3417 -5.61435e-05 21.8238C0.0112915 31.7891 11.2534 42.3709 19.4401 50.5577C27.6298 58.7474 38.2089 69.9861 48.1736 69.9976C48.1789 69.9976 48.1836 69.9976 48.1889 69.9976C51.6645 69.9975 54.7773 68.6472 57.44 65.9845C59.034 64.3906 66.7131 56.7117 67.9946 55.4305C70.6684 52.7566 70.6684 48.4296 67.9947 45.7557ZM17.792 5.2282C18.6811 4.33953 20.128 4.33885 21.0173 5.22806L30.496 14.7069C31.3872 15.5979 31.3873 17.0404 30.496 17.9316L24.7793 23.6483L12.0754 10.9447L17.792 5.2282ZM54.2155 62.7593C52.4139 64.561 50.4427 65.4368 48.1891 65.4368C48.1859 65.4368 48.1824 65.4368 48.1791 65.4368C39.9881 65.4274 29.1026 53.7712 22.6653 47.3327C15.5414 40.2092 4.56977 29.824 4.56047 21.8185C4.55787 19.5607 5.43369 17.5862 7.23783 15.7819L8.8503 14.1695L21.8286 27.1474C21.393 28.0571 21.1628 29.0598 21.1628 30.0979C21.1628 31.9251 21.8745 33.6431 23.1667 34.9353L35.0624 46.831C37.1643 48.9331 40.3046 49.3771 42.8471 48.1661L55.8281 61.1467L54.2155 62.7593ZM64.7699 52.2053L59.0529 57.9221L46.3491 45.2187L52.0661 39.502C52.9554 38.6127 54.4018 38.6127 55.2909 39.502L64.7699 48.9807C65.661 49.8717 65.6612 51.3142 64.7699 52.2053Z" fill="white"/>
</g>
<defs>
<clipPath id="clip0_134_318">
<rect width="70" height="70" fill="white"/>
</clipPath>
</defs>
</svg>
