<svg width="70" height="70" viewBox="0 0 70 70" fill="none" xmlns="http://www.w3.org/2000/svg">
<g clip-path="url(#clip0_134_337)">
<path d="M35 0C15.7011 0 0 15.7011 0 35C0 54.2974 15.7065 70 35 70C54.3316 70 70 54.2579 70 35C70 15.7011 54.2989 0 35 0ZM35 65.4348C27.8726 65.4348 21.3105 62.9711 16.1179 58.852C19.3329 51.3524 26.7355 46.4131 35 46.4131C43.2657 46.4131 50.6697 51.3513 53.8852 58.8494C48.6922 62.9701 42.1289 65.4348 35 65.4348ZM23.587 30.4348C23.587 24.1417 28.7068 19.0218 35 19.0218C41.2932 19.0218 46.413 24.1417 46.413 30.4348C46.413 36.728 41.2932 41.8478 35 41.8478C28.7068 41.8478 23.587 36.728 23.587 30.4348ZM57.3971 55.5838C54.5758 50.0239 49.8062 45.7714 44.1087 43.5548C48.2575 40.6656 50.9783 35.8624 50.9783 30.4348C50.9783 21.6244 43.8104 14.4565 35 14.4565C26.1896 14.4565 19.0217 21.6244 19.0217 30.4348C19.0217 35.8627 21.7428 40.6662 25.8921 43.5553C20.1953 45.7725 15.4267 50.0259 12.6057 55.587C7.6166 50.1642 4.56518 42.932 4.56518 35C4.56518 18.2183 18.2182 4.56518 35 4.56518C51.7818 4.56518 65.4348 18.2183 65.4348 35C65.4348 42.9306 62.3846 50.1614 57.3971 55.5838Z" fill="white"/>
</g>
<defs>
<clipPath id="clip0_134_337">
<rect width="70" height="70" fill="white"/>
</clipPath>
</defs>
</svg>
